<?xml version="1.0" encoding="UTF-8"?>
<!-- Generator: https://ezgif.com/png-to-svg -->
<svg version="1.1" xmlns="http://www.w3.org/2000/svg" width="470" height="470">
<path d="M0 0 C155.1 0 310.2 0 470 0 C470 155.1 470 310.2 470 470 C314.9 470 159.8 470 0 470 C0 314.9 0 159.8 0 0 Z " fill="#0D0A15" transform="translate(0,0)"/>
<path d="M0 0 C75.24 0 150.48 0 228 0 C228 1.32 228 2.64 228 4 C229.14 3.91 229.14 3.91 230.31 3.81 C233 4 233 4 234.81 5.19 C236.37 7.56 236.23 9.22 236 12 C235.34 12 234.68 12 234 12 C234 12.66 234 13.32 234 14 C234.66 14 235.32 14 236 14 C236 15.32 236 16.64 236 18 C236.66 18 237.32 18 238 18 C238 19.32 238 20.64 238 22 C237.34 22 236.68 22 236 22 C235.9 22.54 235.79 23.07 235.69 23.62 C234.82 26.63 233.44 29.24 232 32 C230.02 31.67 228.04 31.34 226 31 C226 31.99 226 32.98 226 34 C225.34 34 224.68 34 224 34 C223.67 34.99 223.34 35.98 223 37 C222.01 37 221.02 37 220 37 C220 35.68 220 34.36 220 33 C217.03 32.67 214.06 32.34 211 32 C211.33 32.99 211.66 33.98 212 35 C214.02 35.73 214.02 35.73 216 36 C216 36.66 216 37.32 216 38 C218.31 38 220.62 38 223 38 C223.33 38.66 223.66 39.32 224 40 C223.34 40 222.68 40 222 40 C222 40.66 222 41.32 222 42 C221.01 42 220.02 42 219 42 C218.67 42.99 218.34 43.98 218 45 C216 45.75 216 45.75 214 46 C213.67 45.67 213.34 45.34 213 45 C213 46.98 213 48.96 213 51 C212.22 51.19 211.43 51.37 210.62 51.56 C207.61 52.84 207.61 52.84 206.69 56.62 C206.35 58.3 206.35 58.3 206 60 C206.66 60.33 207.32 60.66 208 61 C208 61.99 208 62.98 208 64 C207.34 64 206.68 64 206 64 C206 65.32 206 66.64 206 68 C206.99 68 207.98 68 209 68 C210 78.29 210.14 88.49 210.11 98.82 C210.11 100.57 210.11 102.33 210.11 104.08 C210.11 108.81 210.11 113.54 210.1 118.26 C210.1 123.22 210.09 128.17 210.09 133.12 C210.09 142.49 210.08 151.85 210.07 161.21 C210.06 171.88 210.06 182.55 210.05 193.22 C210.04 215.14 210.02 237.07 210 259 C205.56 255.28 201.32 251.46 197.27 247.32 C196.74 246.79 196.22 246.25 195.67 245.7 C194.54 244.56 193.42 243.42 192.29 242.27 C190.5 240.46 188.71 238.65 186.91 236.84 C181.81 231.7 176.72 226.55 171.64 221.4 C168.52 218.23 165.4 215.07 162.26 211.92 C161.07 210.72 159.89 209.52 158.71 208.32 C157.06 206.64 155.4 204.96 153.73 203.29 C153.25 202.8 152.78 202.31 152.28 201.8 C146.54 196.1 140.05 194.26 132.12 193.75 C125.52 193.85 120.16 197.1 115 201 C108.48 208.08 107.25 214.83 107.61 224.1 C108.64 234.45 115.52 239.67 122.9 246.19 C125.32 248.34 127.5 250.56 129.56 253.06 C131.61 255.54 133.44 257.13 136 259 C136 259.66 136 260.32 136 261 C136.59 261.25 137.18 261.5 137.79 261.76 C140.29 263.16 141.62 264.66 143.44 266.88 C146.07 270 148.79 272.47 152 275 C152 275.66 152 276.32 152 277 C152.6 277.27 153.2 277.54 153.82 277.82 C155.99 278.99 157.22 280.06 158.86 281.88 C159.39 282.46 159.92 283.05 160.47 283.65 C161.03 284.28 161.6 284.91 162.19 285.56 C169.63 293.7 177.4 301.49 185.23 309.25 C188.18 312.17 191.12 315.1 194.03 318.06 C196.95 321.03 199.83 323.86 203.06 326.5 C206.13 329.11 208.6 331.91 211.22 334.95 C217.11 341.74 223.49 348.05 232.88 349.24 C241.28 349.53 248.29 347.62 254.62 341.91 C258.66 338.04 262.52 333.99 266.38 329.94 C268.38 327.85 270.4 325.77 272.42 323.69 C273.67 322.4 274.91 321.11 276.14 319.81 C279.23 316.6 282.07 314.18 286 312 C286.89 311.11 287.77 310.23 288.69 309.31 C289.45 308.55 290.21 307.79 291 307 C291.66 307 292.32 307 293 307 C293.33 306.01 293.66 305.02 294 304 C294.66 304 295.32 304 296 304 C296.39 303.13 296.39 303.13 296.79 302.24 C298.08 299.85 299.49 298.14 301.38 296.19 C301.96 295.56 302.55 294.94 303.15 294.29 C305 293 305 293 307.23 293.3 C307.81 293.53 308.4 293.76 309 294 C309 295.32 309 296.64 309 298 C308.34 298 307.68 298 307 298 C307.33 298.66 307.66 299.32 308 300 C308.41 303.05 308.51 305.95 308 309 C305.17 311.53 303.78 312 300 312 C300 313.32 300 314.64 300 316 C301.32 316 302.64 316 304 316 C304 318.64 304 321.28 304 324 C303.28 323.95 302.55 323.91 301.8 323.86 C295.65 323.63 291.8 323.69 287 328 C286.34 328.99 285.68 329.98 285 331 C284.01 330.67 283.02 330.34 282 330 C282.62 324.46 282.62 324.46 284.56 322.12 C285.04 321.75 285.51 321.38 286 321 C282.96 321.33 282.02 321.98 279.88 324.25 C278.14 326.8 277 329.09 276 332 C275.01 332 274.02 332 273 332 C273 332.66 273 333.32 273 334 C272.24 334.08 271.47 334.17 270.69 334.25 C267.44 335.16 266.81 336.25 265 339 C264.34 339.33 263.68 339.66 263 340 C261.87 342.02 261.87 342.02 261 344 C260.67 342.68 260.34 341.36 260 340 C259.34 340 258.68 340 258 340 C257.92 340.6 257.83 341.2 257.75 341.81 C256.79 344.6 255.39 345.38 253 347 C253 347.33 253 347.66 253 348 C254.65 348.33 256.3 348.66 258 349 C257.67 349.99 257.34 350.98 257 352 C256.01 352 255.02 352 254 352 C254 353.32 254 354.64 254 356 C253.34 356 252.68 356 252 356 C252 356.66 252 357.32 252 358 C251.34 358 250.68 358 250 358 C250 358.66 250 359.32 250 360 C249.34 360.66 248.68 361.32 248 362 C247.36 364.07 247.36 364.07 247 366 C246.01 366 245.02 366 244 366 C244.33 368.64 244.66 371.28 245 374 C246.32 374 247.64 374 249 374 C249 374.66 249 375.32 249 376 C250.98 376 252.96 376 255 376 C255 376.33 255 376.66 255 377 C256.65 377.33 258.3 377.66 260 378 C260 378.66 260 379.32 260 380 C261.21 379.97 261.21 379.97 262.44 379.94 C265 380 265 380 266 381 C267.51 381.23 269.04 381.41 270.56 381.56 C271.39 381.65 272.22 381.73 273.07 381.82 C273.7 381.88 274.34 381.94 275 382 C273.68 382.66 272.36 383.32 271 384 C271.33 384.99 271.66 385.98 272 387 C272.99 387.33 273.98 387.66 275 388 C275 388.99 275 389.98 275 391 C273.68 391 272.36 391 271 391 C271 391.66 271 392.32 271 393 C271.85 393.01 272.7 393.02 273.57 393.03 C284.47 393.16 295.36 393.3 306.25 393.44 C307.12 393.45 307.99 393.46 308.89 393.47 C339.26 393.86 369.63 394.35 400 395 C399.98 394.06 399.98 394.06 399.96 393.1 C399.83 386.47 399.7 379.83 399.57 373.19 C399.53 370.73 399.48 368.27 399.43 365.81 C399.26 357.54 399.12 349.27 399 341 C398.98 339.88 398.96 338.76 398.95 337.6 C398.9 334.44 398.87 331.27 398.84 328.1 C398.83 327.16 398.81 326.22 398.8 325.26 C398.78 320.42 399.1 316.54 401 312 C401.66 312 402.32 312 403 312 C403.33 310.68 403.66 309.36 404 308 C404.99 308 405.98 308 407 308 C405.35 311.3 403.7 314.6 402 318 C401.67 343.74 401.34 369.48 401 396 C292.1 396 183.2 396 71 396 C70.67 370.26 70.34 344.52 70 318 C65.7 308.32 62.91 304.62 54 300 C48.39 298.13 42.05 297.97 36.42 299.87 C29.42 303.5 24.7 308.62 21.65 315.89 C20.42 319.89 20.58 323.94 20.6 328.09 C20.59 329.58 20.59 329.58 20.58 331.09 C20.56 334.35 20.56 337.61 20.57 340.86 C20.56 343.14 20.56 345.41 20.55 347.69 C20.54 352.45 20.54 357.22 20.55 361.99 C20.57 368.07 20.55 374.16 20.52 380.25 C20.5 384.95 20.5 389.65 20.5 394.35 C20.5 396.59 20.5 398.84 20.49 401.08 C20.47 404.23 20.48 407.37 20.5 410.52 C20.49 411.44 20.48 412.35 20.47 413.3 C20.59 423.67 24.41 431.33 31.47 438.79 C35.26 442.1 39.36 444.16 44 446 C40.06 447.22 37.84 446.48 34 445 C34 444.34 34 443.68 34 443 C32.68 443.66 31.36 444.32 30 445 C29.67 444.01 29.34 443.02 29 442 C28.5 441.57 28.01 441.13 27.5 440.69 C25.39 438.32 25.34 436.09 25 433 C24.34 433 23.68 433 23 433 C22.01 431.02 21.02 429.04 20 427 C19.34 427.33 18.68 427.66 18 428 C18 425.36 18 422.72 18 420 C17.34 420 16.68 420 16 420 C15.61 417.9 15.24 415.79 14.88 413.69 C14.67 412.52 14.46 411.34 14.24 410.14 C14 407 14 407 16 404 C16.39 401.68 16.73 399.34 17 397 C16.34 396.67 15.68 396.34 15 396 C14.97 389.65 14.96 383.29 14.95 376.94 C14.94 374.78 14.93 372.61 14.92 370.45 C14.91 367.35 14.91 364.24 14.9 361.14 C14.9 360.17 14.89 359.2 14.89 358.2 C14.89 356.85 14.89 356.85 14.89 355.47 C14.88 354.68 14.88 353.89 14.88 353.07 C15 351 15 351 16 348 C14.68 348 13.36 348 12 348 C12.01 348.84 12.02 349.69 12.04 350.55 C12.05 352.2 12.05 352.2 12.06 353.88 C12.07 354.97 12.09 356.06 12.1 357.18 C12 360 12 360 11 362 C9.68 361.67 8.36 361.34 7 361 C6.67 361.99 6.34 362.98 6 364 C5.34 364 4.68 364 4 364 C4 362.68 4 361.36 4 360 C4.66 360 5.32 360 6 360 C5.5 358.51 5.5 358.51 5 357 C4.01 357.99 3.02 358.98 2 360 C1.34 359.67 0.68 359.34 0 359 C0 240.53 0 122.06 0 0 Z " fill="#0D0915" transform="translate(0,0)"/>
<path d="M0 0 C8.02 4.17 12.21 9.69 15.06 18.25 C15.06 43.99 15.06 69.73 15.06 96.25 C123.96 96.25 232.86 96.25 345.06 96.25 C345.06 70.51 345.06 44.77 345.06 18.25 C349.73 8.92 352.83 4.31 361.38 -0.69 C368.37 -2.7 374.61 -2.77 381.31 0.25 C388.5 4.3 393.68 10.29 396.06 18.25 C396.47 21.82 396.44 25.36 396.4 28.96 C396.4 30.01 396.4 31.07 396.4 32.15 C396.4 35.62 396.38 39.09 396.36 42.56 C396.35 44.97 396.35 47.38 396.34 49.79 C396.33 56.13 396.3 62.46 396.27 68.8 C396.24 75.26 396.22 81.73 396.21 88.2 C396.18 100.88 396.13 113.57 396.06 126.25 C395.4 126.25 394.74 126.25 394.06 126.25 C394 127.49 394 127.49 393.94 128.75 C392.02 136.42 386.78 140.89 380.31 145.02 C375.59 147.6 371.95 148.5 366.54 148.5 C365.9 148.51 365.25 148.51 364.59 148.51 C362.43 148.52 360.26 148.52 358.1 148.51 C356.54 148.51 354.97 148.52 353.41 148.52 C349.11 148.53 344.8 148.53 340.5 148.53 C335.86 148.52 331.22 148.53 326.59 148.54 C317.5 148.55 308.41 148.55 299.32 148.55 C291.93 148.55 284.54 148.55 277.15 148.56 C276.1 148.56 275.05 148.56 273.96 148.56 C271.83 148.56 269.69 148.56 267.56 148.56 C247.52 148.57 227.49 148.57 207.45 148.56 C189.13 148.56 170.8 148.57 152.48 148.59 C133.66 148.61 114.85 148.62 96.03 148.61 C85.47 148.61 74.91 148.61 64.34 148.63 C55.35 148.64 46.35 148.64 37.36 148.63 C32.77 148.62 28.18 148.62 23.59 148.63 C19.39 148.65 15.18 148.64 10.98 148.63 C9.46 148.63 7.94 148.63 6.43 148.64 C-7.21 148.7 -16.8 146.99 -26.85 137.43 C-34.21 129.7 -36.55 121.3 -36.47 110.82 C-36.48 109.83 -36.49 108.84 -36.5 107.82 C-36.52 104.58 -36.51 101.34 -36.5 98.09 C-36.51 95.82 -36.52 93.55 -36.52 91.28 C-36.53 86.53 -36.53 81.79 -36.51 77.04 C-36.5 70.97 -36.52 64.91 -36.56 58.84 C-36.58 54.16 -36.58 49.47 -36.57 44.78 C-36.57 42.55 -36.57 40.31 -36.59 38.08 C-36.61 34.94 -36.59 31.81 -36.57 28.68 C-36.58 27.77 -36.59 26.86 -36.6 25.92 C-36.49 18.29 -34.19 11.74 -28.93 6.1 C-20.51 -1.68 -11 -4.65 0 0 Z " fill="#CFA8FD" transform="translate(55.9375,299.75)"/>
<path d="M0 0 C6.87 4.84 10.14 10.93 12 19 C12.72 25.38 12.57 31.83 12.55 38.24 C12.55 40.17 12.57 42.11 12.58 44.04 C12.6 49.26 12.61 54.48 12.61 59.69 C12.61 65.16 12.64 70.62 12.66 76.09 C12.7 86.42 12.72 96.75 12.73 107.09 C12.75 118.86 12.79 130.63 12.83 142.4 C12.91 166.6 12.96 190.8 13 215 C13.74 214.24 14.48 213.49 15.24 212.71 C22.24 205.57 29.26 198.45 36.29 191.35 C39.91 187.7 43.51 184.04 47.11 180.36 C50.58 176.81 54.07 173.28 57.57 169.76 C58.9 168.42 60.22 167.07 61.54 165.72 C69.76 157.27 76.7 150.65 89 149.5 C95.97 149.94 102.83 152.46 107.94 157.25 C114.19 164.38 115.65 170.12 115.3 179.67 C114.05 193.39 101.99 202.16 92.79 211.44 C91.8 212.43 90.81 213.43 89.82 214.43 C86.62 217.68 83.41 220.91 80.2 224.15 C79.65 224.7 79.1 225.26 78.53 225.83 C73.33 231.06 68.14 236.29 62.93 241.51 C56.32 248.16 49.71 254.81 43.12 261.48 C38.46 266.2 33.79 270.9 29.11 275.59 C26.32 278.38 23.54 281.18 20.78 283.99 C18.18 286.64 15.56 289.26 12.93 291.88 C11.52 293.29 10.13 294.71 8.74 296.14 C1.91 302.88 -4.93 306.8 -14.62 307.5 C-27.35 306.8 -35.68 296.47 -44 288 C-44.74 287.3 -45.47 286.61 -46.23 285.89 C-48 284 -48 284 -48 282 C-48.58 281.75 -49.16 281.5 -49.75 281.24 C-52.28 279.84 -53.93 278.26 -55.94 276.19 C-56.59 275.52 -57.23 274.85 -57.9 274.17 C-58.59 273.45 -59.29 272.74 -60 272 C-63.07 268.93 -66.14 265.86 -69.22 262.8 C-71.39 260.64 -73.56 258.49 -75.73 256.33 C-76.87 255.19 -78 254.06 -79.14 252.93 C-84.99 247.13 -90.69 241.31 -96 235 C-97.26 233.84 -98.54 232.7 -99.88 231.62 C-102.85 229.1 -105.45 226.46 -108 223.5 C-110.44 220.68 -112.88 218.14 -115.75 215.75 C-120.1 212.09 -123.84 207.94 -127.61 203.71 C-130.01 201.04 -132.4 198.6 -135.19 196.34 C-140.37 192.03 -142.63 187.9 -143.48 181.18 C-143.91 173.23 -143.35 166.27 -138 160 C-132.32 154.15 -126.59 150.32 -118.38 149.75 C-102.53 150.07 -93.59 162.26 -83.19 172.71 C-81.97 173.94 -80.74 175.16 -79.52 176.38 C-76.33 179.58 -73.14 182.78 -69.95 185.98 C-66.69 189.25 -63.43 192.52 -60.16 195.79 C-53.77 202.19 -47.38 208.59 -41 215 C-41 213.99 -41 212.99 -41 211.95 C-40.96 187.44 -40.9 162.92 -40.82 138.41 C-40.78 126.56 -40.74 114.7 -40.73 102.85 C-40.72 92.51 -40.69 82.18 -40.65 71.85 C-40.62 66.38 -40.61 60.91 -40.61 55.44 C-40.61 50.28 -40.59 45.13 -40.56 39.98 C-40.55 38.09 -40.55 36.2 -40.55 34.32 C-40.6 15.97 -40.6 15.97 -36 9 C-35.46 8.18 -34.92 7.36 -34.36 6.51 C-25.12 -3.96 -12.82 -6.29 0 0 Z " fill="#A05DFB" transform="translate(250,43)"/>
<path d="M0 0 C8.02 4.17 12.21 9.69 15.06 18.25 C15.06 43.99 15.06 69.73 15.06 96.25 C93.93 96.25 172.8 96.25 254.06 96.25 C254.06 96.58 254.06 96.91 254.06 97.25 C253.29 97.36 252.51 97.46 251.71 97.57 C248.12 98.06 244.53 98.56 240.94 99.06 C239.72 99.23 238.5 99.39 237.25 99.56 C228.75 100.76 220.42 102.33 212.06 104.25 C210.96 104.5 209.86 104.75 208.72 105.01 C187.7 109.93 167.48 116.69 147.12 123.8 C123.01 132.21 98.63 139.38 73.62 144.62 C71.84 145 71.84 145 70.02 145.39 C68.31 145.73 68.31 145.73 66.57 146.09 C65.57 146.29 64.58 146.49 63.56 146.7 C54.43 148.14 45.32 148.42 36.09 148.45 C34.89 148.46 33.68 148.46 32.44 148.47 C29.91 148.48 27.38 148.49 24.86 148.49 C21.01 148.5 17.16 148.53 13.31 148.56 C10.84 148.57 8.37 148.57 5.9 148.58 C4.76 148.59 3.62 148.6 2.45 148.62 C-9.7 148.58 -18.04 145.81 -26.85 137.43 C-34.21 129.7 -36.55 121.3 -36.47 110.82 C-36.48 109.83 -36.49 108.84 -36.5 107.82 C-36.52 104.58 -36.51 101.34 -36.5 98.09 C-36.51 95.82 -36.52 93.55 -36.52 91.28 C-36.53 86.53 -36.53 81.79 -36.51 77.04 C-36.5 70.97 -36.52 64.91 -36.56 58.84 C-36.58 54.16 -36.58 49.47 -36.57 44.78 C-36.57 42.55 -36.57 40.31 -36.59 38.08 C-36.61 34.94 -36.59 31.81 -36.57 28.68 C-36.58 27.77 -36.59 26.86 -36.6 25.92 C-36.49 18.29 -34.19 11.74 -28.93 6.1 C-20.51 -1.68 -11 -4.65 0 0 Z " fill="#9C54FC" transform="translate(55.9375,299.75)"/>
<path d="M0 0 C7.43 3.65 10.96 9.51 13.56 17.11 C14.9 22.24 14.89 27.21 14.83 32.49 C14.83 33.67 14.83 34.85 14.83 36.06 C14.83 39.94 14.81 43.81 14.78 47.69 C14.77 50.41 14.77 53.13 14.77 55.84 C14.76 61.54 14.74 67.23 14.71 72.92 C14.67 80.17 14.65 87.42 14.64 94.66 C14.64 100.96 14.62 107.25 14.6 113.55 C14.59 115.54 14.59 117.53 14.58 119.52 C14.46 158.68 14.46 158.68 11.36 177.16 C9.9 177.56 9.9 177.56 8.42 177.97 C6.9 178.56 6.9 178.56 5.36 179.16 C5.03 180.15 4.7 181.14 4.36 182.16 C3.04 182.16 1.72 182.16 0.36 182.16 C0.36 182.82 0.36 183.48 0.36 184.16 C-0.96 184.16 -2.28 184.16 -3.64 184.16 C-3.64 185.48 -3.64 186.8 -3.64 188.16 C-4.39 188.28 -5.13 188.4 -5.89 188.53 C-10.28 189.53 -12.11 190.36 -14.64 194.16 C-17.68 194.45 -17.68 194.45 -21.27 194.34 C-22.46 194.32 -23.65 194.29 -24.87 194.26 C-25.79 194.23 -26.7 194.19 -27.64 194.16 C-27.64 194.82 -27.64 195.48 -27.64 196.16 C-24.74 197.41 -22.85 198.16 -19.64 198.16 C-19.64 200.8 -19.64 203.44 -19.64 206.16 C-23.6 207.15 -23.6 207.15 -27.64 208.16 C-27.64 208.82 -27.64 209.48 -27.64 210.16 C-29.95 209.83 -32.26 209.5 -34.64 209.16 C-34.64 207.84 -34.64 206.52 -34.64 205.16 C-34.97 203.95 -35.29 202.74 -35.63 201.49 C-37.34 194.05 -36.95 186.35 -36.95 178.75 C-36.96 176.99 -36.97 175.23 -36.98 173.47 C-37 168.71 -37.01 163.95 -37.01 159.19 C-37.02 156.22 -37.02 153.24 -37.03 150.26 C-37.05 139.86 -37.07 129.46 -37.07 119.07 C-37.07 109.39 -37.1 99.71 -37.15 90.03 C-37.18 81.71 -37.2 73.39 -37.2 65.06 C-37.2 60.1 -37.21 55.13 -37.23 50.17 C-37.26 45.5 -37.26 40.83 -37.25 36.16 C-37.24 34.45 -37.25 32.74 -37.27 31.04 C-37.35 21.07 -37.19 12.87 -29.87 5.33 C-21.11 -2.82 -11.2 -3.84 0 0 Z " fill="#C69CFD" transform="translate(247.64453125,41.84375)"/>
<path d="M0 0 C5.12 3.73 9.34 8.83 11 15 C11.78 22.56 12.06 30.35 8 37 C2.3 43.87 -4.04 50.19 -10.34 56.49 C-11.67 57.82 -11.67 57.82 -13.03 59.18 C-15.42 61.59 -17.82 63.99 -20.22 66.39 C-21.72 67.89 -23.22 69.39 -24.72 70.9 C-29.96 76.15 -35.2 81.39 -40.45 86.63 C-45.33 91.52 -50.21 96.41 -55.09 101.3 C-59.29 105.51 -63.49 109.72 -67.7 113.92 C-70.2 116.43 -72.71 118.94 -75.21 121.45 C-77.99 124.24 -80.78 127.02 -83.56 129.81 C-84.39 130.64 -85.22 131.48 -86.08 132.34 C-86.83 133.09 -87.59 133.84 -88.37 134.61 C-89.02 135.27 -89.68 135.93 -90.36 136.61 C-92 138 -92 138 -94 138 C-93.82 137.14 -93.64 136.27 -93.45 135.38 C-92.99 131.91 -93.21 129.32 -93.78 125.88 C-97.3 102.01 -101.18 73.26 -86.05 52.69 C-78.74 43.3 -70.31 34.98 -61.62 26.88 C-60.91 26.2 -60.19 25.53 -59.45 24.83 C-21.31 -10.78 -21.31 -10.78 0 0 Z " fill="#CEA8FC" transform="translate(354,197)"/>
<path d="M0 0 C7.22 4.06 12.31 10.03 14.75 18 C15.15 21.3 15.13 24.56 15.09 27.88 C15.09 29.33 15.09 29.33 15.09 30.81 C15.09 33.99 15.07 37.16 15.04 40.34 C15.04 42.55 15.03 44.76 15.03 46.97 C15.02 52.77 14.99 58.57 14.96 64.37 C14.93 70.3 14.91 76.22 14.9 82.15 C14.86 93.77 14.81 105.38 14.75 117 C13.18 116.53 11.62 116.06 10.05 115.59 C9.18 115.33 8.31 115.07 7.41 114.8 C4.91 114.05 2.42 113.29 -0.07 112.54 C-4.33 111.24 -8.59 109.97 -12.86 108.71 C-14.88 108.11 -16.91 107.5 -18.93 106.9 C-41.04 100.62 -63.37 98.07 -86.25 97 C-86.25 96.67 -86.25 96.34 -86.25 96 C-69.75 96 -53.25 96 -36.25 96 C-36.31 90.49 -36.37 84.97 -36.43 79.29 C-36.45 75.78 -36.48 72.27 -36.49 68.76 C-36.52 63.2 -36.56 57.64 -36.63 52.08 C-36.68 47.59 -36.71 43.11 -36.72 38.62 C-36.73 36.91 -36.75 35.21 -36.78 33.5 C-36.94 23.02 -36.81 13.97 -29.27 5.88 C-20.94 -2.08 -10.74 -4.84 0 0 Z " fill="#9D54FC" transform="translate(437.25,300)"/>
<path d="M0 0 C0.66 0.33 1.32 0.66 2 1 C2.63 3.72 2.63 3.72 3.12 7.06 C3.29 8.17 3.46 9.27 3.63 10.41 C3.75 11.26 3.88 12.12 4 13 C3.34 13 2.68 13 2 13 C2 75.04 2 137.08 2 201 C1.34 201.33 0.68 201.66 0 202 C-0.15 175.81 -0.3 149.62 -0.44 123.43 C-0.51 111.27 -0.58 99.11 -0.65 86.95 C-0.71 76.36 -0.77 65.76 -0.83 55.17 C-0.85 49.56 -0.89 43.94 -0.92 38.33 C-0.95 33.05 -0.98 27.78 -1.01 22.5 C-1.02 20.56 -1.03 18.61 -1.04 16.67 C-1.06 14.03 -1.07 11.39 -1.08 8.75 C-1.09 7.97 -1.1 7.19 -1.1 6.39 C-1.11 4.59 -1.06 2.8 -1 1 C-0.67 0.67 -0.34 0.34 0 0 Z " fill="#1E0F31" transform="translate(262,57)"/>
<path d="M0 0 C3.52 0.56 4.86 1.61 7.07 4.38 C11.69 9.91 16.82 14.92 21.94 20 C22.92 20.98 23.9 21.95 24.88 22.93 C27.25 25.29 29.62 27.64 32 30 C31.34 30.66 30.68 31.32 30 32 C26.2 28.25 22.41 24.5 18.63 20.74 C17.34 19.46 16.05 18.19 14.76 16.91 C12.9 15.08 11.05 13.24 9.2 11.39 C8.62 10.83 8.05 10.26 7.46 9.68 C4.43 6.66 2.02 3.82 0 0 Z " fill="#8B57D2" transform="translate(157,280)"/>
<path d="M0 0 C0.66 0.68 1.32 1.36 2 2.06 C4.97 5.06 8.19 7.75 11.43 10.45 C11.95 10.96 12.46 11.47 13 12 C13 12.66 13 13.32 13 14 C13.62 14.27 14.24 14.54 14.88 14.81 C17 16 17 16 19 19 C14.01 18.42 10.66 14.72 7.31 11.25 C5.9 9.73 5.9 9.73 3 9 C0.76 6.68 0.03 5.51 -0.19 2.25 C-0.13 1.51 -0.06 0.76 0 0 Z " fill="#17092B" transform="translate(123,247)"/>
<path d="M0 0 C1.65 0 3.3 0 5 0 C6.12 5.75 6.12 5.75 5 8 C5.99 8 6.98 8 8 8 C8 9.65 8 11.3 8 13 C7.67 13 7.34 13 7 13 C6.67 15.97 6.34 18.94 6 22 C5.67 22 5.34 22 5 22 C4.96 20.75 4.96 20.75 4.92 19.47 C4.55 12.16 3.57 6.43 0 0 Z " fill="#180F23" transform="translate(360,203)"/>
<path d="M0 0 C1.11 0.94 2.21 1.87 3.31 2.81 C3.93 3.33 4.54 3.86 5.18 4.39 C8.52 7.34 8.52 7.34 10 9 C10 9.66 10 10.32 10 11 C10.99 11.33 11.98 11.66 13 12 C12.34 12.66 11.68 13.32 11 14 C9.68 13.34 8.36 12.68 7 12 C7 10.68 7 9.36 7 8 C6.22 7.73 5.43 7.46 4.62 7.19 C2 6 2 6 0 3 C0 2.01 0 1.02 0 0 Z " fill="#1F0D3A" transform="translate(142,266)"/>
<path d="M0 0 C3.96 0 7.92 0 12 0 C12 0.33 12 0.66 12 1 C11.03 1.12 10.06 1.25 9.06 1.38 C7.55 1.68 7.55 1.68 6 2 C5.67 2.66 5.34 3.32 5 4 C2.03 3.5 2.03 3.5 -1 3 C-0.67 2.01 -0.34 1.02 0 0 Z " fill="#8751D4" transform="translate(39,298)"/>
<path d="M0 0 C4 5 4 5 8 10 C7.01 10 6.02 10 5 10 C3.39 8.25 3.39 8.25 1.81 6 C1.28 5.26 0.75 4.51 0.21 3.75 C-0.19 3.17 -0.59 2.59 -1 2 C-0.67 1.34 -0.34 0.68 0 0 Z " fill="#8E59D9" transform="translate(110,230)"/>
<path d="M0 0 C0.33 0 0.66 0 1 0 C1 1.98 1 3.96 1 6 C1.99 6.33 2.98 6.66 4 7 C3.34 7.66 2.68 8.32 2 9 C-0.31 8.34 -2.62 7.68 -5 7 C-4.36 6.71 -3.72 6.42 -3.06 6.12 C-0.85 5.17 -0.85 5.17 0 3 C-0.66 2.67 -1.32 2.34 -2 2 C-1.34 1.34 -0.68 0.68 0 0 Z " fill="#2A1E38" transform="translate(245,34)"/>
<path d="M0 0 C0.99 0 1.98 0 3 0 C3 1.65 3 3.3 3 5 C2.67 5 2.34 5 2 5 C1.67 7.97 1.34 10.94 1 14 C0.67 14 0.34 14 0 14 C0 9.38 0 4.76 0 0 Z " fill="#312346" transform="translate(365,211)"/>
<path d="M0 0 C0.98 0.01 1.97 0.02 2.98 0.03 C4.11 0.04 4.11 0.04 5.25 0.06 C5.25 0.39 5.25 0.72 5.25 1.06 C4.29 1.15 4.29 1.15 3.32 1.25 C2.49 1.33 1.66 1.41 0.81 1.5 C-0.42 1.62 -0.42 1.62 -1.68 1.75 C-3.74 1.85 -3.74 1.85 -4.75 3.06 C-6.42 3.1 -8.08 3.11 -9.75 3.06 C-9.75 2.4 -9.75 1.74 -9.75 1.06 C-6.44 0.06 -3.45 -0.04 0 0 Z " fill="#8652CC" transform="translate(426.75,297.9375)"/>
<path d="M0 0 C1.49 0.99 1.49 0.99 3 2 C3 2.66 3 3.32 3 4 C3.62 4.27 4.24 4.54 4.88 4.81 C7 6 7 6 9 9 C6.66 8.83 5.31 8.3 3.62 6.67 C0 2.43 0 2.43 0 0 Z " fill="#271246" transform="translate(133,257)"/>
<path d="M0 0 C1.32 0 2.64 0 4 0 C6.25 3 6.25 3 8 6 C5 6 5 6 3.61 4.69 C2.41 3.12 1.2 1.56 0 0 Z " fill="#8551D0" transform="translate(207,331)"/>
</svg>
